<svg xmlns="http://www.w3.org/2000/svg" viewBox="0 0 960 640" fill="none">
  <defs>
    <linearGradient id="bg" x1="0" y1="0" x2="960" y2="640" gradientUnits="userSpaceOnUse">
      <stop offset="0" stop-color="#0f1117"/>
      <stop offset="1" stop-color="#1a1b26"/>
    </linearGradient>
    <linearGradient id="brandGrad" x1="0" y1="0" x2="1" y2="1">
      <stop offset="0" stop-color="#00f0ff"/>
      <stop offset="0.5" stop-color="#8b5cf6"/>
      <stop offset="1" stop-color="#d946ef"/>
    </linearGradient>
    <filter id="glow">
      <feGaussianBlur stdDeviation="3" result="blur"/>
      <feMerge><feMergeNode in="blur"/><feMergeNode in="SourceGraphic"/></feMerge>
    </filter>
  </defs>

  <!-- Background -->
  <rect width="960" height="640" fill="url(#bg)" rx="12"/>
  <ellipse cx="480" cy="350" rx="400" ry="200" fill="#8b5cf6" opacity="0.02"/>

  <!-- Title -->
  <text x="480" y="40" text-anchor="middle" fill="#e2e8f0" font-family="'SF Mono',monospace" font-size="22" font-weight="bold">Multi-Agent Terminals</text>
  <text x="480" y="60" text-anchor="middle" fill="#64748b" font-family="monospace" font-size="11">Real PTY Sessions • Broadcast • Grid Layouts • CLI-Agnostic</text>

  <!-- ═══ Tab Bar ═══ -->
  <rect x="40" y="78" width="880" height="32" rx="6" fill="#1a1b26" stroke="#334155" stroke-width="0.8"/>

  <!-- Tab items -->
  <rect x="48" y="84" width="100" height="20" rx="4" fill="#1e1f2e" stroke="#00d4ff" stroke-width="1"/>
  <text x="98" y="98" text-anchor="middle" fill="#67e8f9" font-family="monospace" font-size="8" font-weight="bold">Auth API</text>

  <rect x="156" y="84" width="100" height="20" rx="4" fill="#1e1f2e" stroke="#8b5cf6" stroke-width="1"/>
  <text x="206" y="98" text-anchor="middle" fill="#a5b4fc" font-family="monospace" font-size="8" font-weight="bold">Frontend</text>

  <rect x="264" y="84" width="100" height="20" rx="4" fill="#0f1117" stroke="#334155" stroke-width="0.5"/>
  <text x="314" y="98" text-anchor="middle" fill="#64748b" font-family="monospace" font-size="8">Database</text>

  <rect x="372" y="84" width="100" height="20" rx="4" fill="#0f1117" stroke="#334155" stroke-width="0.5"/>
  <text x="422" y="98" text-anchor="middle" fill="#64748b" font-family="monospace" font-size="8">Testing</text>

  <rect x="480" y="84" width="100" height="20" rx="4" fill="#0f1117" stroke="#d946ef" stroke-width="0.5"/>
  <text x="530" y="98" text-anchor="middle" fill="#64748b" font-family="monospace" font-size="8">Gemini</text>

  <rect x="588" y="84" width="100" height="20" rx="4" fill="#0f1117" stroke="#334155" stroke-width="0.5"/>
  <text x="638" y="98" text-anchor="middle" fill="#64748b" font-family="monospace" font-size="8">Research</text>

  <!-- + button -->
  <rect x="700" y="84" width="24" height="20" rx="4" fill="#0f1117" stroke="#475569" stroke-width="0.5"/>
  <text x="712" y="98" text-anchor="middle" fill="#475569" font-family="monospace" font-size="12">+</text>

  <text x="850" y="98" text-anchor="middle" fill="#475569" font-family="monospace" font-size="8">Cmd+1-9 switch</text>

  <!-- ═══ Split Terminal Grid (2x2) ═══ -->

  <!-- Terminal 1 (top-left) — Claude Code -->
  <rect x="40" y="120" width="428" height="210" rx="8" fill="#0a0a14" stroke="#00d4ff" stroke-width="1.5"/>
  <!-- Title bar -->
  <rect x="40" y="120" width="428" height="24" rx="8" fill="#1e1f2e"/>
  <rect x="40" y="136" width="428" height="8" fill="#1e1f2e"/>
  <circle cx="56" cy="132" r="4" fill="#ef4444" opacity="0.7"/>
  <circle cx="70" cy="132" r="4" fill="#f59e0b" opacity="0.7"/>
  <circle cx="84" cy="132" r="4" fill="#4ade80" opacity="0.7"/>
  <text x="260" y="136" text-anchor="middle" fill="#67e8f9" font-family="monospace" font-size="9" font-weight="bold">Auth API — Claude Code (Opus)</text>
  <rect x="394" y="126" width="60" height="14" rx="3" fill="#0f1117" stroke="#4ade80" stroke-width="0.5"/>
  <text x="424" y="136" text-anchor="middle" fill="#4ade80" font-family="monospace" font-size="7">working</text>

  <!-- Terminal content -->
  <text x="54" y="162" fill="#4ade80" font-family="monospace" font-size="9">$ claude --model opus --permission trusted</text>
  <text x="54" y="178" fill="#94a3b8" font-family="monospace" font-size="9">Reading auth/middleware.ts...</text>
  <text x="54" y="194" fill="#a5b4fc" font-family="monospace" font-size="9">I'll add JWT refresh token rotation to</text>
  <text x="54" y="210" fill="#a5b4fc" font-family="monospace" font-size="9">the authentication middleware.</text>
  <text x="54" y="230" fill="#64748b" font-family="monospace" font-size="9">Tool: Edit (auth/middleware.ts)</text>
  <text x="54" y="246" fill="#4ade80" font-family="monospace" font-size="9">+  const refreshToken = jwt.sign(...</text>
  <text x="54" y="262" fill="#4ade80" font-family="monospace" font-size="9">+    { userId, sessionId },</text>
  <text x="54" y="278" fill="#4ade80" font-family="monospace" font-size="9">+    REFRESH_SECRET, { expiresIn: '7d' }</text>

  <!-- Terminal 2 (top-right) — Claude Code -->
  <rect x="492" y="120" width="428" height="210" rx="8" fill="#0a0a14" stroke="#8b5cf6" stroke-width="1.5"/>
  <rect x="492" y="120" width="428" height="24" rx="8" fill="#1e1f2e"/>
  <rect x="492" y="136" width="428" height="8" fill="#1e1f2e"/>
  <circle cx="508" cy="132" r="4" fill="#ef4444" opacity="0.7"/>
  <circle cx="522" cy="132" r="4" fill="#f59e0b" opacity="0.7"/>
  <circle cx="536" cy="132" r="4" fill="#4ade80" opacity="0.7"/>
  <text x="710" y="136" text-anchor="middle" fill="#a5b4fc" font-family="monospace" font-size="9" font-weight="bold">Frontend — Claude Code (Sonnet)</text>
  <rect x="846" y="126" width="60" height="14" rx="3" fill="#0f1117" stroke="#f59e0b" stroke-width="0.5"/>
  <text x="876" y="136" text-anchor="middle" fill="#f59e0b" font-family="monospace" font-size="7">idle</text>

  <!-- Terminal content -->
  <text x="506" y="162" fill="#4ade80" font-family="monospace" font-size="9">$ claude --model sonnet</text>
  <text x="506" y="178" fill="#a5b4fc" font-family="monospace" font-size="9">Done! I've updated the LoginForm</text>
  <text x="506" y="194" fill="#a5b4fc" font-family="monospace" font-size="9">component with the new design.</text>
  <text x="506" y="214" fill="#64748b" font-family="monospace" font-size="9">Changes: 3 files modified</text>
  <text x="506" y="230" fill="#64748b" font-family="monospace" font-size="9">  src/components/LoginForm.tsx</text>
  <text x="506" y="246" fill="#64748b" font-family="monospace" font-size="9">  src/styles/auth.css</text>
  <text x="506" y="262" fill="#64748b" font-family="monospace" font-size="9">  src/hooks/useAuth.ts</text>
  <text x="506" y="282" fill="#67e8f9" font-family="monospace" font-size="9">Waiting for input...</text>

  <!-- Terminal 3 (bottom-left) — Gemini CLI -->
  <rect x="40" y="344" width="428" height="180" rx="8" fill="#0a0a14" stroke="#d946ef" stroke-width="1.5"/>
  <rect x="40" y="344" width="428" height="24" rx="8" fill="#1e1f2e"/>
  <rect x="40" y="360" width="428" height="8" fill="#1e1f2e"/>
  <circle cx="56" cy="356" r="4" fill="#ef4444" opacity="0.7"/>
  <circle cx="70" cy="356" r="4" fill="#f59e0b" opacity="0.7"/>
  <circle cx="84" cy="356" r="4" fill="#4ade80" opacity="0.7"/>
  <text x="260" y="360" text-anchor="middle" fill="#f0abfc" font-family="monospace" font-size="9" font-weight="bold">Database — Gemini CLI (Pro)</text>
  <rect x="394" y="350" width="60" height="14" rx="3" fill="#0f1117" stroke="#4ade80" stroke-width="0.5"/>
  <text x="424" y="360" text-anchor="middle" fill="#4ade80" font-family="monospace" font-size="7">working</text>

  <text x="54" y="386" fill="#4ade80" font-family="monospace" font-size="9">$ gemini --model pro</text>
  <text x="54" y="402" fill="#f0abfc" font-family="monospace" font-size="9">Analyzing the schema migration...</text>
  <text x="54" y="418" fill="#64748b" font-family="monospace" font-size="9">Tool: Read (db/migrations/004.sql)</text>
  <text x="54" y="434" fill="#f0abfc" font-family="monospace" font-size="9">I'll add the refresh_tokens table</text>
  <text x="54" y="450" fill="#f0abfc" font-family="monospace" font-size="9">with proper foreign keys.</text>

  <!-- Terminal 4 (bottom-right) — Testing -->
  <rect x="492" y="344" width="428" height="180" rx="8" fill="#0a0a14" stroke="#f59e0b" stroke-width="1.5"/>
  <rect x="492" y="344" width="428" height="24" rx="8" fill="#1e1f2e"/>
  <rect x="492" y="360" width="428" height="8" fill="#1e1f2e"/>
  <circle cx="508" cy="356" r="4" fill="#ef4444" opacity="0.7"/>
  <circle cx="522" cy="356" r="4" fill="#f59e0b" opacity="0.7"/>
  <circle cx="536" cy="356" r="4" fill="#4ade80" opacity="0.7"/>
  <text x="710" y="360" text-anchor="middle" fill="#fbbf24" font-family="monospace" font-size="9" font-weight="bold">Testing — Claude Code (Haiku)</text>
  <rect x="846" y="350" width="60" height="14" rx="3" fill="#0f1117" stroke="#4ade80" stroke-width="0.5"/>
  <text x="876" y="360" text-anchor="middle" fill="#4ade80" font-family="monospace" font-size="7">working</text>

  <text x="506" y="386" fill="#4ade80" font-family="monospace" font-size="9">$ claude --model haiku</text>
  <text x="506" y="402" fill="#94a3b8" font-family="monospace" font-size="9">Running test suite...</text>
  <text x="506" y="418" fill="#4ade80" font-family="monospace" font-size="9">PASS  auth.test.ts (12 tests)</text>
  <text x="506" y="434" fill="#4ade80" font-family="monospace" font-size="9">PASS  api.test.ts (8 tests)</text>
  <text x="506" y="450" fill="#ef4444" font-family="monospace" font-size="9">FAIL  refresh.test.ts (2 of 5)</text>
  <text x="506" y="466" fill="#94a3b8" font-family="monospace" font-size="9">Fixing failing tests...</text>

  <!-- ═══ Broadcast Bar ═══ -->
  <rect x="40" y="540" width="880" height="40" rx="8" fill="#1e1f2e" stroke="#8b5cf6" stroke-width="1.5"/>
  <text x="60" y="564" fill="#a5b4fc" font-family="monospace" font-size="10" font-weight="bold">BROADCAST</text>
  <rect x="150" y="548" width="550" height="24" rx="4" fill="#0f1117" stroke="#475569" stroke-width="0.5"/>
  <text x="160" y="564" fill="#64748b" font-family="monospace" font-size="9">Run all tests and report results → sending to 4 sessions...</text>
  <text x="730" y="564" fill="#475569" font-family="monospace" font-size="9">Cmd+Shift+Enter</text>
  <rect x="850" y="548" width="56" height="24" rx="4" fill="#8b5cf6" stroke="none"/>
  <text x="878" y="564" text-anchor="middle" fill="#fff" font-family="monospace" font-size="9" font-weight="bold">Send</text>

  <!-- ═══ Feature badges (row 1) ═══ -->
  <rect x="40" y="590" width="120" height="18" rx="4" fill="#0f1117" stroke="#00d4ff" stroke-width="0.6"/>
  <text x="100" y="602" text-anchor="middle" fill="#67e8f9" font-family="monospace" font-size="7">Real PTY Sessions</text>

  <rect x="168" y="590" width="100" height="18" rx="4" fill="#0f1117" stroke="#8b5cf6" stroke-width="0.6"/>
  <text x="218" y="602" text-anchor="middle" fill="#a5b4fc" font-family="monospace" font-size="7">WebSocket I/O</text>

  <rect x="276" y="590" width="100" height="18" rx="4" fill="#0f1117" stroke="#d946ef" stroke-width="0.6"/>
  <text x="326" y="602" text-anchor="middle" fill="#f0abfc" font-family="monospace" font-size="7">CLI-Agnostic</text>

  <rect x="384" y="590" width="100" height="18" rx="4" fill="#0f1117" stroke="#f59e0b" stroke-width="0.6"/>
  <text x="434" y="602" text-anchor="middle" fill="#fbbf24" font-family="monospace" font-size="7">Grid Layouts</text>

  <rect x="492" y="590" width="90" height="18" rx="4" fill="#0f1117" stroke="#4ade80" stroke-width="0.6"/>
  <text x="537" y="602" text-anchor="middle" fill="#4ade80" font-family="monospace" font-size="7">Split View</text>

  <rect x="590" y="590" width="100" height="18" rx="4" fill="#0f1117" stroke="#94a3b8" stroke-width="0.6"/>
  <text x="640" y="602" text-anchor="middle" fill="#94a3b8" font-family="monospace" font-size="7">Clone / Export</text>

  <!-- Worktree badge (highlighted — newly added) -->
  <rect x="698" y="590" width="130" height="18" rx="4" fill="#00d4ff" opacity="0.08" stroke="#00d4ff" stroke-width="0.8"/>
  <text x="763" y="602" text-anchor="middle" fill="#67e8f9" font-family="monospace" font-size="7" font-weight="bold">Worktree Isolation</text>

  <rect x="836" y="590" width="84" height="18" rx="4" fill="#0f1117" stroke="#f0abfc" stroke-width="0.6"/>
  <text x="878" y="602" text-anchor="middle" fill="#f0abfc" font-family="monospace" font-size="7">Merge</text>

  <!-- Worktree detail line -->
  <text x="480" y="618" text-anchor="middle" fill="#475569" font-family="monospace" font-size="8">Worktree: each session on its own git branch — toggle per-session or set workspace default</text>

  <!-- Footer -->
  <text x="480" y="634" text-anchor="middle" fill="url(#brandGrad)" font-family="monospace" font-size="10" font-weight="bold">IVE — Integrated Vibecoding Environment</text>
</svg>