<svg xmlns="http://www.w3.org/2000/svg" viewBox="0 0 32 32">
  <defs>
    <linearGradient id="g" x1="0" y1="0" x2="1" y2="1">
      <stop offset="0%" stop-color="#00f0ff"/>
      <stop offset="50%" stop-color="#8b5cf6"/>
      <stop offset="100%" stop-color="#d946ef"/>
    </linearGradient>
  </defs>
  <rect width="32" height="32" rx="6" fill="#04040c"/>
  <!-- Convergence V mark -->
  <g transform="translate(16,17)">
    <g transform="translate(-10,-11)">
      <path d="M0,0 L4,0 L10,13.6 L16,0 L20,0 L10,20 Z"
            fill="#00f0ff" opacity="0.78"
            transform="translate(-1.4,0) rotate(-7,10,20)"/>
      <path d="M0,0 L4,0 L10,13.6 L16,0 L20,0 L10,20 Z"
            fill="#8b5cf6" opacity="0.78"/>
      <path d="M0,0 L4,0 L10,13.6 L16,0 L20,0 L10,20 Z"
            fill="#d946ef" opacity="0.78"
            transform="translate(1.4,0) rotate(7,10,20)"/>
      <circle cx="10" cy="20" r="1.2" fill="#fff" opacity="0.9"/>
    </g>
  </g>
</svg>
